HIERARCHY
ROOT Hips
{
	OFFSET 0.000000 0.000000 0.000000
	CHANNELS 6 Xposition Yposition Zposition Xrotation Yrotation Zrotation
	JOINT Thigh.L
	{
		OFFSET 0.055239 0.031158 -0.093081
		CHANNELS 3 Xrotation Yrotation Zrotation
		JOINT Shin.L
		{
			OFFSET 0.054095 0.015849 -0.413936
			CHANNELS 3 Xrotation Yrotation Zrotation
			JOINT Foot.L
			{
				OFFSET -0.042136 0.033900 -0.434193
				CHANNELS 3 Xrotation Yrotation Zrotation
				JOINT Toe.L
				{
					OFFSET 0.045295 -0.119983 -0.064087
					CHANNELS 3 Xrotation Yrotation Zrotation
					End Site
					{
						OFFSET 0.000000 0.050000 0.000000
					}
				}
			}
		}
	}
	JOINT Thigh.R
	{
		OFFSET -0.060551 0.028353 -0.103502
		CHANNELS 3 Xrotation Yrotation Zrotation
		JOINT Shin.R
		{
			OFFSET -0.043326 0.021457 -0.397580
			CHANNELS 3 Xrotation Yrotation Zrotation
			JOINT Foot.R
			{
				OFFSET 0.015764 0.022240 -0.443143
				CHANNELS 3 Xrotation Yrotation Zrotation
				JOINT Toe.R
				{
					OFFSET -0.037406 -0.120703 -0.064050
					CHANNELS 3 Xrotation Yrotation Zrotation
					End Site
					{
						OFFSET 0.000000 0.050000 0.000000
					}
				}
			}
		}
	}
	JOINT Spine
	{
		OFFSET -0.002204 0.019692 0.110576
		CHANNELS 3 Xrotation Yrotation Zrotation
		JOINT Spine.2
		{
			OFFSET 0.006995 0.002850 0.136103
			CHANNELS 3 Xrotation Yrotation Zrotation
			JOINT Chest
			{
				OFFSET -0.010486 -0.023570 0.050036
				CHANNELS 3 Xrotation Yrotation Zrotation
				JOINT Neck
				{
					OFFSET -0.009539 0.029280 0.166280
					CHANNELS 3 Xrotation Yrotation Zrotation
					JOINT Head
					{
						OFFSET 0.022352 -0.023107 0.170384
						CHANNELS 3 Xrotation Yrotation Zrotation
						End Site
						{
							OFFSET 0.000000 0.050000 0.000000
						}
					}
				}
				JOINT Clavicle.L
				{
					OFFSET 0.043410 0.008324 0.084906
					CHANNELS 3 Xrotation Yrotation Zrotation
					JOINT UpperArm.L
					{
						OFFSET 0.106972 0.014986 0.062136
						CHANNELS 3 Xrotation Yrotation Zrotation
						JOINT ForeArm.L
						{
							OFFSET 0.264898 0.035726 -0.076328
							CHANNELS 3 Xrotation Yrotation Zrotation
							JOINT Hand.L
							{
								OFFSET 0.264006 0.006212 0.021444
								CHANNELS 3 Xrotation Yrotation Zrotation
								JOINT Thumb1.L
								{
									OFFSET 0.154573 0.002813 0.009712
									CHANNELS 3 Xrotation Yrotation Zrotation
									JOINT Thumb2.L
									{
										OFFSET 0.029893 0.000703 0.002428
										CHANNELS 3 Xrotation Yrotation Zrotation
										End Site
										{
											OFFSET 0.024911 0.000586 0.002023
										}
									}
								}
								JOINT Index1.L
								{
									OFFSET 0.137573 0.002813 0.009712
									CHANNELS 3 Xrotation Yrotation Zrotation
									JOINT Index2.L
									{
										OFFSET 0.029893 0.000703 0.002428
										CHANNELS 3 Xrotation Yrotation Zrotation
										JOINT Index3.L
										{
											OFFSET 0.021922 0.000516 0.001781
											CHANNELS 3 Xrotation Yrotation Zrotation
											End Site
											{
												OFFSET 0.017936 0.000422 0.001457
											}
										}
									}
								}
								JOINT Middle1.L
								{
									OFFSET 0.119573 0.002813 0.009712
									CHANNELS 3 Xrotation Yrotation Zrotation
									JOINT Middle2.L
									{
										OFFSET 0.030890 0.000727 0.002509
										CHANNELS 3 Xrotation Yrotation Zrotation
										JOINT Middle3.L
										{
											OFFSET 0.021922 0.000516 0.001781
											CHANNELS 3 Xrotation Yrotation Zrotation
											End Site
											{
												OFFSET 0.017936 0.000422 0.001457
											}
										}
									}
								}
								JOINT Ring1.L
								{
									OFFSET 0.101573 0.002813 0.009712
									CHANNELS 3 Xrotation Yrotation Zrotation
									JOINT Ring2.L
									{
										OFFSET 0.028897 0.000680 0.002347
										CHANNELS 3 Xrotation Yrotation Zrotation
										JOINT Ring3.L
										{
											OFFSET 0.019929 0.000469 0.001619
											CHANNELS 3 Xrotation Yrotation Zrotation
											End Site
											{
												OFFSET 0.016940 0.000399 0.001376
											}
										}
									}
								}
								JOINT Pinky1.L
								{
									OFFSET 0.085573 0.002813 0.009712
									CHANNELS 3 Xrotation Yrotation Zrotation
									JOINT Pinky2.L
									{
										OFFSET 0.023915 0.000563 0.001942
										CHANNELS 3 Xrotation Yrotation Zrotation
										JOINT Pinky3.L
										{
											OFFSET 0.016940 0.000399 0.001376
											CHANNELS 3 Xrotation Yrotation Zrotation
											End Site
											{
												OFFSET 0.013950 0.000328 0.001133
											}
										}
									}
								}
							}
						}
					}
				}
				JOINT Clavicle.R
				{
					OFFSET -0.041632 0.014470 0.084340
					CHANNELS 3 Xrotation Yrotation Zrotation
					JOINT UpperArm.R
					{
						OFFSET -0.092392 0.009933 0.057744
						CHANNELS 3 Xrotation Yrotation Zrotation
						JOINT ForeArm.R
						{
							OFFSET -0.280957 0.022924 -0.043145
							CHANNELS 3 Xrotation Yrotation Zrotation
							JOINT Hand.R
							{
								OFFSET -0.260730 0.018863 -0.003611
								CHANNELS 3 Xrotation Yrotation Zrotation
								JOINT Thumb1.R
								{
									OFFSET -0.154676 0.008658 -0.001657
									CHANNELS 3 Xrotation Yrotation Zrotation
									JOINT Thumb2.R
									{
										OFFSET -0.029919 0.002165 -0.000414
										CHANNELS 3 Xrotation Yrotation Zrotation
										End Site
										{
											OFFSET -0.024932 0.001804 -0.000345
										}
									}
								}
								JOINT Index1.R
								{
									OFFSET -0.137676 0.008658 -0.001657
									CHANNELS 3 Xrotation Yrotation Zrotation
									JOINT Index2.R
									{
										OFFSET -0.029919 0.002165 -0.000414
										CHANNELS 3 Xrotation Yrotation Zrotation
										JOINT Index3.R
										{
											OFFSET -0.021941 0.001587 -0.000304
											CHANNELS 3 Xrotation Yrotation Zrotation
											End Site
											{
												OFFSET -0.017951 0.001299 -0.000249
											}
										}
									}
								}
								JOINT Middle1.R
								{
									OFFSET -0.119676 0.008658 -0.001657
									CHANNELS 3 Xrotation Yrotation Zrotation
									JOINT Middle2.R
									{
										OFFSET -0.030916 0.002237 -0.000428
										CHANNELS 3 Xrotation Yrotation Zrotation
										JOINT Middle3.R
										{
											OFFSET -0.021941 0.001587 -0.000304
											CHANNELS 3 Xrotation Yrotation Zrotation
											End Site
											{
												OFFSET -0.017951 0.001299 -0.000249
											}
										}
									}
								}
								JOINT Ring1.R
								{
									OFFSET -0.101676 0.008658 -0.001657
									CHANNELS 3 Xrotation Yrotation Zrotation
									JOINT Ring2.R
									{
										OFFSET -0.028922 0.002092 -0.000401
										CHANNELS 3 Xrotation Yrotation Zrotation
										JOINT Ring3.R
										{
											OFFSET -0.019946 0.001443 -0.000276
											CHANNELS 3 Xrotation Yrotation Zrotation
											End Site
											{
												OFFSET -0.016954 0.001227 -0.000235
											}
										}
									}
								}
								JOINT Pinky1.R
								{
									OFFSET -0.085676 0.008658 -0.001657
									CHANNELS 3 Xrotation Yrotation Zrotation
									JOINT Pinky2.R
									{
										OFFSET -0.023935 0.001732 -0.000331
										CHANNELS 3 Xrotation Yrotation Zrotation
										JOINT Pinky3.R
										{
											OFFSET -0.016954 0.001227 -0.000235
											CHANNELS 3 Xrotation Yrotation Zrotation
											End Site
											{
												OFFSET -0.013962 0.001010 -0.000193
											}
										}
									}
								}
							}
						}
					}
				}
			}
		}
	}
}
MOTION
Frames: 8
Frame Time: 0.04166667
0.000499 -0.070596 1.411044 -10.630603 0.398822 1.713248 7.732745 0.420075 2.169665 4.539433 -0.610649 -6.207219 -3.234851 3.647489 8.566985 2.807569 -2.902325 0.994717 4.548962 -1.039498 -2.979826 9.800603 0.251689 -0.733680 -1.472706 -5.299424 -3.889440 1.055903 -1.721405 -1.384267 6.704463 -0.048750 2.891170 8.239628 -3.896658 -2.451639 -7.377628 0.732224 0.712331 10.840131 3.114508 3.547715 8.666052 -1.208517 9.017333 9.694152 24.963531 -1.536332 12.554567 47.516708 -14.660384 14.946661 -4.566509 -22.925115 7.182071 -4.745034 -5.232280 0.000000 0.000000 0.000000 0.000000 0.000000 0.000000 0.000000 0.000000 0.000000 0.000000 0.000000 0.000000 0.000000 0.000000 0.000000 0.000000 0.000000 0.000000 0.000000 0.000000 0.000000 0.000000 0.000000 0.000000 0.000000 0.000000 0.000000 0.000000 0.000000 0.000000 0.000000 0.000000 0.000000 0.000000 0.000000 0.000000 0.000000 0.000000 0.000000 0.000000 0.000000 0.000000 6.456795 -15.945099 4.930256 25.579294 -52.405971 21.974208 11.092146 8.063976 28.957150 3.495070 -1.341893 2.204255 0.000000 0.000000 0.000000 0.000000 0.000000 0.000000 0.000000 0.000000 0.000000 0.000000 0.000000 0.000000 0.000000 0.000000 0.000000 0.000000 0.000000 0.000000 0.000000 0.000000 0.000000 0.000000 0.000000 0.000000 0.000000 0.000000 0.000000 0.000000 0.000000 0.000000 0.000000 0.000000 0.000000 0.000000 0.000000 0.000000 0.000000 0.000000 0.000000 0.000000 0.000000 0.000000
0.000291 -0.070178 1.411225 -10.630642 0.422597 1.665261 7.875221 0.449455 2.222637 4.315446 -0.678937 -6.191673 -3.175746 3.682904 8.590194 2.836193 -2.874075 0.983206 4.621049 -1.079227 -2.961250 9.699514 0.288263 -0.701868 -1.398971 -5.319055 -3.916439 1.076900 -1.658067 -1.356234 6.719493 -0.085274 2.861703 8.266098 -3.912967 -2.488341 -7.456390 0.727232 0.703675 10.959802 3.135953 3.482867 8.727653 -1.178798 9.065195 9.731566 25.101773 -1.513291 12.495118 47.473263 -14.560394 14.939418 -4.594243 -22.812302 7.254864 -4.603450 -5.142673 0.000000 0.000000 0.000000 0.000000 0.000000 0.000000 0.000000 0.000000 0.000000 0.000000 0.000000 0.000000 0.000000 0.000000 0.000000 0.000000 0.000000 0.000000 0.000000 0.000000 0.000000 0.000000 0.000000 0.000000 0.000000 0.000000 0.000000 0.000000 0.000000 0.000000 0.000000 0.000000 0.000000 0.000000 0.000000 0.000000 0.000000 0.000000 0.000000 0.000000 0.000000 0.000000 6.520333 -16.051600 4.919758 25.484700 -52.300644 21.859423 11.091228 8.099050 29.041893 3.578809 -1.353605 2.185875 0.000000 0.000000 0.000000 0.000000 0.000000 0.000000 0.000000 0.000000 0.000000 0.000000 0.000000 0.000000 0.000000 0.000000 0.000000 0.000000 0.000000 0.000000 0.000000 0.000000 0.000000 0.000000 0.000000 0.000000 0.000000 0.000000 0.000000 0.000000 0.000000 0.000000 0.000000 0.000000 0.000000 0.000000 0.000000 0.000000 0.000000 0.000000 0.000000 0.000000 0.000000 0.000000
0.000705 -0.069843 1.411405 -10.662673 0.412115 1.626524 8.035245 0.458563 2.270422 4.137133 -0.706803 -6.166631 -3.100793 3.700589 8.572295 2.864096 -2.821512 0.989596 4.758882 -1.109732 -2.947851 9.565291 0.319954 -0.673690 -1.349964 -5.319004 -3.946750 1.086108 -1.642009 -1.357153 6.771316 -0.121807 2.839436 8.268272 -3.905540 -2.495395 -7.453476 0.710990 0.665457 11.052414 3.094736 3.383871 8.792175 -1.130034 9.076224 9.705954 25.196080 -1.468667 12.450562 47.434126 -14.484673 14.922288 -4.603269 -22.698970 7.317403 -4.494508 -5.046624 0.000000 0.000000 0.000000 0.000000 0.000000 0.000000 0.000000 0.000000 0.000000 0.000000 0.000000 0.000000 0.000000 0.000000 0.000000 0.000000 0.000000 0.000000 0.000000 0.000000 0.000000 0.000000 0.000000 0.000000 0.000000 0.000000 0.000000 0.000000 0.000000 0.000000 0.000000 0.000000 0.000000 0.000000 0.000000 0.000000 0.000000 0.000000 0.000000 0.000000 0.000000 0.000000 6.543944 -16.163173 4.937420 25.401435 -52.226282 21.758249 10.957408 8.073746 29.116457 3.664995 -1.327286 2.116202 0.000000 0.000000 0.000000 0.000000 0.000000 0.000000 0.000000 0.000000 0.000000 0.000000 0.000000 0.000000 0.000000 0.000000 0.000000 0.000000 0.000000 0.000000 0.000000 0.000000 0.000000 0.000000 0.000000 0.000000 0.000000 0.000000 0.000000 0.000000 0.000000 0.000000 0.000000 0.000000 0.000000 0.000000 0.000000 0.000000 0.000000 0.000000 0.000000 0.000000 0.000000 0.000000
0.000879 -0.070286 1.411513 -10.715483 0.416570 1.593025 8.088991 0.445977 2.293492 4.116798 -0.717365 -6.135995 -3.053783 3.716524 8.573906 2.881480 -2.780955 0.981168 4.783682 -1.136936 -2.878193 9.606412 0.343779 -0.632001 -1.293174 -5.310211 -3.972194 1.090818 -1.611049 -1.340502 6.856890 -0.136145 2.824525 8.336935 -3.923096 -2.485823 -7.561866 0.704237 0.644085 11.151740 3.084460 3.287070 8.858646 -1.109243 9.130584 9.717655 25.284430 -1.429196 12.394072 47.390708 -14.446086 14.890945 -4.630231 -22.681306 7.400183 -4.419194 -4.932617 0.000000 0.000000 0.000000 0.000000 0.000000 0.000000 0.000000 0.000000 0.000000 0.000000 0.000000 0.000000 0.000000 0.000000 0.000000 0.000000 0.000000 0.000000 0.000000 0.000000 0.000000 0.000000 0.000000 0.000000 0.000000 0.000000 0.000000 0.000000 0.000000 0.000000 0.000000 0.000000 0.000000 0.000000 0.000000 0.000000 0.000000 0.000000 0.000000 0.000000 0.000000 0.000000 6.605293 -16.244362 4.941665 25.282912 -52.157651 21.696533 10.855007 8.061160 29.164012 3.741306 -1.364398 2.012222 0.000000 0.000000 0.000000 0.000000 0.000000 0.000000 0.000000 0.000000 0.000000 0.000000 0.000000 0.000000 0.000000 0.000000 0.000000 0.000000 0.000000 0.000000 0.000000 0.000000 0.000000 0.000000 0.000000 0.000000 0.000000 0.000000 0.000000 0.000000 0.000000 0.000000 0.000000 0.000000 0.000000 0.000000 0.000000 0.000000 0.000000 0.000000 0.000000 0.000000 0.000000 0.000000
0.000587 -0.071153 1.411515 -10.769971 0.447368 1.582741 8.059018 0.422922 2.295757 4.197600 -0.725902 -6.134906 -3.054220 3.682554 8.614927 2.882901 -2.751560 0.974349 4.774182 -1.162487 -2.833924 9.658835 0.351403 -0.594762 -1.229247 -5.297819 -3.993846 1.088528 -1.604942 -1.338660 6.959111 -0.143790 2.803872 8.365003 -3.940043 -2.474143 -7.618681 0.711942 0.620412 11.213731 3.049944 3.194044 8.944674 -1.089196 9.090449 9.734144 25.363014 -1.428133 12.354454 47.346727 -14.450955 14.900629 -4.697813 -22.691120 7.443920 -4.388467 -4.852743 0.000000 0.000000 0.000000 0.000000 0.000000 0.000000 0.000000 0.000000 0.000000 0.000000 0.000000 0.000000 0.000000 0.000000 0.000000 0.000000 0.000000 0.000000 0.000000 0.000000 0.000000 0.000000 0.000000 0.000000 0.000000 0.000000 0.000000 0.000000 0.000000 0.000000 0.000000 0.000000 0.000000 0.000000 0.000000 0.000000 0.000000 0.000000 0.000000 0.000000 0.000000 0.000000 6.619339 -16.301143 4.966840 25.181315 -52.093449 21.629462 10.780433 8.053266 29.218739 3.725895 -1.330578 1.970617 0.000000 0.000000 0.000000 0.000000 0.000000 0.000000 0.000000 0.000000 0.000000 0.000000 0.000000 0.000000 0.000000 0.000000 0.000000 0.000000 0.000000 0.000000 0.000000 0.000000 0.000000 0.000000 0.000000 0.000000 0.000000 0.000000 0.000000 0.000000 0.000000 0.000000 0.000000 0.000000 0.000000 0.000000 0.000000 0.000000 0.000000 0.000000 0.000000 0.000000 0.000000 0.000000
0.000285 -0.071819 1.411426 -10.798643 0.482289 1.566499 7.998878 0.391547 2.301713 4.288170 -0.723505 -6.096632 -3.091616 3.668885 8.663992 2.894608 -2.727460 0.946005 4.715372 -1.187896 -2.785817 9.756406 0.357011 -0.602790 -1.211001 -5.312523 -4.020950 1.087225 -1.572178 -1.318576 7.112776 -0.121268 2.798126 8.470923 -4.006891 -2.475853 -7.796394 0.720455 0.616394 11.316377 3.040567 3.102387 9.034937 -1.084291 9.108405 9.852052 25.434312 -1.508623 12.318469 47.279395 -14.501943 14.875042 -4.711586 -22.678673 7.455405 -4.460095 -4.806251 0.000000 0.000000 0.000000 0.000000 0.000000 0.000000 0.000000 0.000000 0.000000 0.000000 0.000000 0.000000 0.000000 0.000000 0.000000 0.000000 0.000000 0.000000 0.000000 0.000000 0.000000 0.000000 0.000000 0.000000 0.000000 0.000000 0.000000 0.000000 0.000000 0.000000 0.000000 0.000000 0.000000 0.000000 0.000000 0.000000 0.000000 0.000000 0.000000 0.000000 0.000000 0.000000 6.714265 -16.342197 5.021976 25.100132 -51.985538 21.621649 10.764750 8.048629 29.257156 3.711654 -1.313057 1.955968 0.000000 0.000000 0.000000 0.000000 0.000000 0.000000 0.000000 0.000000 0.000000 0.000000 0.000000 0.000000 0.000000 0.000000 0.000000 0.000000 0.000000 0.000000 0.000000 0.000000 0.000000 0.000000 0.000000 0.000000 0.000000 0.000000 0.000000 0.000000 0.000000 0.000000 0.000000 0.000000 0.000000 0.000000 0.000000 0.000000 0.000000 0.000000 0.000000 0.000000 0.000000 0.000000
0.000272 -0.072333 1.411279 -10.808541 0.497532 1.480717 7.865083 0.363783 2.281244 4.495313 -0.686099 -6.045755 -3.142429 3.647763 8.735741 2.876338 -2.742678 0.939702 4.570170 -1.179466 -2.740016 9.955016 0.349870 -0.620513 -1.212539 -5.314001 -4.026020 1.086104 -1.589092 -1.313862 7.233758 -0.141478 2.762086 8.455214 -3.993343 -2.467586 -7.757824 0.715630 0.602149 11.255307 3.050291 3.107963 9.015994 -1.050463 9.161094 9.812225 25.416134 -1.528011 12.324343 47.258186 -14.510026 14.946886 -4.697075 -22.668067 7.430217 -4.436541 -4.799383 0.000000 0.000000 0.000000 0.000000 0.000000 0.000000 0.000000 0.000000 0.000000 0.000000 0.000000 0.000000 0.000000 0.000000 0.000000 0.000000 0.000000 0.000000 0.000000 0.000000 0.000000 0.000000 0.000000 0.000000 0.000000 0.000000 0.000000 0.000000 0.000000 0.000000 0.000000 0.000000 0.000000 0.000000 0.000000 0.000000 0.000000 0.000000 0.000000 0.000000 0.000000 0.000000 6.662463 -16.334187 5.025287 25.124381 -51.926905 21.683239 10.799952 8.040077 29.351310 3.727627 -1.290968 1.929553 0.000000 0.000000 0.000000 0.000000 0.000000 0.000000 0.000000 0.000000 0.000000 0.000000 0.000000 0.000000 0.000000 0.000000 0.000000 0.000000 0.000000 0.000000 0.000000 0.000000 0.000000 0.000000 0.000000 0.000000 0.000000 0.000000 0.000000 0.000000 0.000000 0.000000 0.000000 0.000000 0.000000 0.000000 0.000000 0.000000 0.000000 0.000000 0.000000 0.000000 0.000000 0.000000
-0.000247 -0.071837 1.411105 -10.817411 0.519188 1.366078 7.637220 0.350281 2.241193 4.954302 -0.637227 -5.981470 -3.234715 3.639733 8.851102 2.839910 -2.745580 0.921216 4.328565 -1.142408 -2.671494 10.393142 0.346602 -0.653231 -1.215431 -5.336778 -4.015721 1.070933 -1.571082 -1.301207 7.366447 -0.150222 2.715394 8.449462 -3.975839 -2.461493 -7.795398 0.697009 0.592714 11.295522 3.119690 3.125430 8.963140 -1.036924 9.296706 9.885579 25.379443 -1.560376 12.371255 47.240761 -14.502104 14.982109 -4.600241 -22.710671 7.392177 -4.460624 -4.782266 0.000000 0.000000 0.000000 0.000000 0.000000 0.000000 0.000000 0.000000 0.000000 0.000000 0.000000 0.000000 0.000000 0.000000 0.000000 0.000000 0.000000 0.000000 0.000000 0.000000 0.000000 0.000000 0.000000 0.000000 0.000000 0.000000 0.000000 0.000000 0.000000 0.000000 0.000000 0.000000 0.000000 0.000000 0.000000 0.000000 0.000000 0.000000 0.000000 0.000000 0.000000 0.000000 6.725869 -16.254430 5.002603 25.121566 -51.883725 21.714002 10.893609 7.999458 29.450323 3.670503 -1.307383 1.871425 0.000000 0.000000 0.000000 0.000000 0.000000 0.000000 0.000000 0.000000 0.000000 0.000000 0.000000 0.000000 0.000000 0.000000 0.000000 0.000000 0.000000 0.000000 0.000000 0.000000 0.000000 0.000000 0.000000 0.000000 0.000000 0.000000 0.000000 0.000000 0.000000 0.000000 0.000000 0.000000 0.000000 0.000000 0.000000 0.000000 0.000000 0.000000 0.000000 0.000000 0.000000 0.000000
